<?xml version="1.0" encoding="utf-8"?>
<!-- Generator: Adobe Illustrator 23.0.6, SVG Export Plug-In . SVG Version: 6.00 Build 0)  -->
<svg version="1.1" id="Layer_1" xmlns="http://www.w3.org/2000/svg" xmlns:xlink="http://www.w3.org/1999/xlink" x="0px" y="0px"
	 width="195px" height="35px" viewBox="0 0 195 35" style="enable-background:new 0 0 195 35;" xml:space="preserve">
<style type="text/css">
	.st0{fill:#D7E144;}
	.st1{fill:#F2F2F2;}
</style>
<polygon class="st0" points="18.401,26.748 7.028,35 11.362,21.634 0,13.369 14.051,13.36 18.401,0 22.75,13.36 36.801,13.369 
	25.439,21.634 29.773,35 "/>
<polygon class="st0" points="57.95,26.748 46.578,35 50.912,21.634 39.55,13.369 53.6,13.36 57.95,0 62.3,13.36 76.351,13.369 
	64.989,21.634 69.322,35 "/>
<polygon class="st0" points="97.5,26.748 86.128,35 90.462,21.634 79.099,13.369 93.15,13.36 97.5,0 101.85,13.36 115.901,13.369 
	104.538,21.634 108.872,35 "/>
<polygon class="st0" points="137.05,26.748 125.678,35 130.011,21.634 118.649,13.369 132.7,13.36 137.05,0 141.4,13.36 
	155.45,13.369 144.088,21.634 148.422,35 "/>
<polygon class="st0" points="176.599,26.748 165.227,35 169.561,21.634 158.199,13.369 172.25,13.36 176.599,0 "/>
<polygon class="st1" points="176.599,26.748 187.972,35 183.638,21.634 195,13.369 180.949,13.36 176.599,0 "/>
<g>
</g>
<g>
</g>
<g>
</g>
<g>
</g>
<g>
</g>
<g>
</g>
<g>
</g>
<g>
</g>
<g>
</g>
<g>
</g>
<g>
</g>
<g>
</g>
<g>
</g>
<g>
</g>
<g>
</g>
</svg>
